<svg width="25" height="28" viewBox="0 0 25 28" fill="none" xmlns="http://www.w3.org/2000/svg">
<path d="M16.5 0.0065918H8.5V2.67326H16.5V0.0065918ZM11.1667 17.3399H13.8333V9.33993H11.1667V17.3399ZM21.8733 8.51326L23.7667 6.61993C23.1933 5.93993 22.5667 5.29993 21.8867 4.73993L19.9933 6.63326C17.9267 4.97993 15.3267 3.99326 12.5 3.99326C5.87333 3.99326 0.5 9.36659 0.5 15.9933C0.5 22.6199 5.86 27.9933 12.5 27.9933C19.14 27.9933 24.5 22.6199 24.5 15.9933C24.5 13.1799 23.5133 10.5799 21.8733 8.51326ZM12.5 25.3399C7.34 25.3399 3.16667 21.1666 3.16667 16.0066C3.16667 10.8466 7.34 6.67326 12.5 6.67326C17.66 6.67326 21.8333 10.8466 21.8333 16.0066C21.8333 21.1666 17.66 25.3399 12.5 25.3399Z" fill="#201E1E"/>
</svg>
