<svg width="34" height="34" viewBox="0 0 34 34" fill="none" xmlns="http://www.w3.org/2000/svg">
<path d="M24.2224 12.2214C22.9013 11.1974 21.316 10.6854 19.6426 10.6001L19.3784 10.8561C20.8756 11.1974 22.1968 11.8801 23.4298 12.8188C21.9325 12.0508 20.2591 11.5388 18.4976 11.3681C17.9692 11.2828 17.5288 11.2828 17.0004 11.2828C16.472 11.2828 16.0316 11.2828 15.5032 11.3681C13.7417 11.5388 12.0683 12.0508 10.571 12.8188C11.804 11.8801 13.1252 11.1974 14.6224 10.8561L14.3582 10.6001C12.6848 10.6854 11.0995 11.1974 9.77837 12.2214C8.28112 14.9521 7.48846 18.0241 7.40039 21.1814C8.72147 22.5468 10.571 23.4001 12.5087 23.4001C12.5087 23.4001 13.1252 22.7174 13.5655 22.1201C12.4206 21.8641 11.3637 21.2667 10.6591 20.3281C11.2756 20.6694 11.8921 21.0108 12.5087 21.2667C13.3013 21.6081 14.094 21.7788 14.8867 21.9494C15.5912 22.0347 16.2958 22.1201 17.0004 22.1201C17.705 22.1201 18.4096 22.0347 19.1141 21.9494C19.9068 21.7788 20.6995 21.6081 21.4921 21.2667C22.1087 21.0108 22.7252 20.6694 23.3417 20.3281C22.6371 21.2667 21.5802 21.8641 20.4353 22.1201C20.8756 22.7174 21.4921 23.4001 21.4921 23.4001C23.4298 23.4001 25.2793 22.5468 26.6004 21.1814C26.5123 18.0241 25.7197 14.9521 24.2224 12.2214ZM14.094 19.6454C13.2133 19.6454 12.4206 18.8774 12.4206 17.9388C12.4206 17.0001 13.2133 16.2321 14.094 16.2321C14.9747 16.2321 15.7674 17.0001 15.7674 17.9388C15.7674 18.8774 14.9747 19.6454 14.094 19.6454ZM19.9068 19.6454C19.0261 19.6454 18.2334 18.8774 18.2334 17.9388C18.2334 17.0001 19.0261 16.2321 19.9068 16.2321C20.7875 16.2321 21.5802 17.0001 21.5802 17.9388C21.5802 18.8774 20.7875 19.6454 19.9068 19.6454Z" fill="#232C6B"/>
<rect x="0.5" y="0.5" width="33" height="33" rx="16.5" stroke="#232C6B"/>
</svg>
