<svg width="24" height="24" viewBox="0 0 24 24" fill="none" xmlns="http://www.w3.org/2000/svg">
<path d="M23.25 3.816L10.4137 17.52L5.64375 12.432L7.23 10.74L10.4137 14.136L21.6637 2.136L23.25 3.816ZM20.7638 9.864C20.91 10.548 21 11.268 21 12C21 17.304 16.9725 21.6 12 21.6C7.0275 21.6 3 17.304 3 12C3 6.696 7.0275 2.4 12 2.4C13.7775 2.4 15.42 2.952 16.815 3.9L18.435 2.172C16.6125 0.804 14.3962 0 12 0C5.79 0 0.75 5.376 0.75 12C0.75 18.624 5.79 24 12 24C18.21 24 23.25 18.624 23.25 12C23.25 10.572 23.0025 9.204 22.575 7.932L20.7638 9.864Z" fill="#236BE2"/>
</svg>
