<svg width="27" height="28" viewBox="0 0 27 28" fill="none" xmlns="http://www.w3.org/2000/svg">
<path d="M12.166 18.0001H14.8327V20.6667H12.166V18.0001ZM12.166 7.33342H14.8327V15.3334H12.166V7.33342ZM13.486 0.666748C6.12602 0.666748 0.166016 6.64008 0.166016 14.0001C0.166016 21.3601 6.12602 27.3334 13.486 27.3334C20.8594 27.3334 26.8327 21.3601 26.8327 14.0001C26.8327 6.64008 20.8594 0.666748 13.486 0.666748ZM13.4993 24.6667C7.60602 24.6667 2.83268 19.8934 2.83268 14.0001C2.83268 8.10675 7.60602 3.33341 13.4993 3.33341C19.3927 3.33341 24.166 8.10675 24.166 14.0001C24.166 19.8934 19.3927 24.6667 13.4993 24.6667Z" fill="#201E1E"/>
</svg>
