<svg width="34" height="34" viewBox="0 0 34 34" fill="none" xmlns="http://www.w3.org/2000/svg">
<path d="M17 10.4458C19.1205 10.4458 19.4096 10.4458 20.2771 10.4458C21.0482 10.4458 21.4337 10.6386 21.7229 10.7349C22.1084 10.9277 22.3976 11.0241 22.6867 11.3133C22.9759 11.6024 23.1687 11.8916 23.2651 12.2771C23.3614 12.5663 23.4578 12.9518 23.5542 13.7229C23.5542 14.5904 23.5542 14.7831 23.5542 17C23.5542 19.2169 23.5542 19.4096 23.5542 20.2771C23.5542 21.0482 23.3614 21.4337 23.2651 21.7229C23.0723 22.1084 22.9759 22.3976 22.6867 22.6867C22.3976 22.9759 22.1084 23.1687 21.7229 23.2651C21.4337 23.3614 21.0482 23.4578 20.2771 23.5542C19.4096 23.5542 19.2169 23.5542 17 23.5542C14.7831 23.5542 14.5904 23.5542 13.7229 23.5542C12.9518 23.5542 12.5663 23.3614 12.2771 23.2651C11.8916 23.0723 11.6024 22.9759 11.3133 22.6867C11.0241 22.3976 10.8313 22.1084 10.7349 21.7229C10.6386 21.4337 10.5422 21.0482 10.4458 20.2771C10.4458 19.4096 10.4458 19.2169 10.4458 17C10.4458 14.7831 10.4458 14.5904 10.4458 13.7229C10.4458 12.9518 10.6386 12.5663 10.7349 12.2771C10.9277 11.8916 11.0241 11.6024 11.3133 11.3133C11.6024 11.0241 11.8916 10.8313 12.2771 10.7349C12.5663 10.6386 12.9518 10.5422 13.7229 10.4458C14.5904 10.4458 14.8795 10.4458 17 10.4458ZM17 9C14.7831 9 14.5904 9 13.7229 9C12.8554 9 12.2771 9.19277 11.7952 9.38554C11.3133 9.57831 10.8313 9.86747 10.3494 10.3494C9.86747 10.8313 9.6747 11.2169 9.38554 11.7952C9.19277 12.2771 9.09639 12.8554 9 13.7229C9 14.5904 9 14.8795 9 17C9 19.2169 9 19.4096 9 20.2771C9 21.1446 9.19277 21.7229 9.38554 22.2048C9.57831 22.6867 9.86747 23.1687 10.3494 23.6506C10.8313 24.1325 11.2169 24.3253 11.7952 24.6145C12.2771 24.8072 12.8554 24.9036 13.7229 25C14.5904 25 14.8795 25 17 25C19.1205 25 19.4096 25 20.2771 25C21.1446 25 21.7229 24.8072 22.2048 24.6145C22.6867 24.4217 23.1687 24.1325 23.6506 23.6506C24.1325 23.1687 24.3253 22.7831 24.6145 22.2048C24.8072 21.7229 24.9036 21.1446 25 20.2771C25 19.4096 25 19.1205 25 17C25 14.8795 25 14.5904 25 13.7229C25 12.8554 24.8072 12.2771 24.6145 11.7952C24.4217 11.3133 24.1325 10.8313 23.6506 10.3494C23.1687 9.86747 22.7831 9.6747 22.2048 9.38554C21.7229 9.19277 21.1446 9.09639 20.2771 9C19.4096 9 19.2169 9 17 9Z" fill="#232C6B"/>
<path d="M17 12.8554C14.6867 12.8554 12.8554 14.6867 12.8554 17C12.8554 19.3133 14.6867 21.1446 17 21.1446C19.3133 21.1446 21.1446 19.3133 21.1446 17C21.1446 14.6867 19.3133 12.8554 17 12.8554ZM17 19.6988C15.5542 19.6988 14.3012 18.5422 14.3012 17C14.3012 15.5542 15.4578 14.3012 17 14.3012C18.4458 14.3012 19.6988 15.4578 19.6988 17C19.6988 18.4458 18.4458 19.6988 17 19.6988Z" fill="#232C6B"/>
<path d="M21.241 13.7229C21.7733 13.7229 22.2048 13.2914 22.2048 12.759C22.2048 12.2267 21.7733 11.7952 21.241 11.7952C20.7086 11.7952 20.2771 12.2267 20.2771 12.759C20.2771 13.2914 20.7086 13.7229 21.241 13.7229Z" fill="#232C6B"/>
<rect x="0.5" y="0.5" width="33" height="33" rx="16.5" stroke="#232C6B"/>
</svg>
