<svg width="34" height="34" viewBox="0 0 34 34" fill="none" xmlns="http://www.w3.org/2000/svg">
<path d="M23.4004 17.5956V22.0082H20.8174V17.8647C20.8174 16.8423 20.4408 16.1427 19.526 16.1427C18.8264 16.1427 18.3959 16.627 18.2345 17.0575C18.1807 17.2189 18.1268 17.4342 18.1268 17.7032V22.0082H15.5439C15.5439 22.0082 15.5977 15.0127 15.5439 14.3131H18.1268V15.3893C18.4497 14.8512 19.0955 14.0979 20.4407 14.0979C22.1089 14.0979 23.4004 15.2279 23.4004 17.5956ZM12.8533 10.6001C11.9923 10.6001 11.4004 11.192 11.4004 11.9454C11.4004 12.6988 11.9385 13.2907 12.7995 13.2907C13.7143 13.2907 14.2524 12.6988 14.2524 11.9454C14.3062 11.1382 13.7681 10.6001 12.8533 10.6001ZM11.5618 22.0082H14.1448V14.3131H11.5618V22.0082Z" fill="#232C6B"/>
<rect x="0.5" y="0.5" width="33" height="33" rx="16.5" stroke="#232C6B"/>
</svg>
