<svg width="136" height="48" viewBox="0 0 136 48" fill="none" xmlns="http://www.w3.org/2000/svg">
<path fill-rule="evenodd" clip-rule="evenodd" d="M110.882 30.7538C110.903 28.5546 110.214 27.4549 108.813 27.4549C107.368 27.4549 106.197 28.5845 105.289 30.8436C104.578 32.6227 104.227 34.3816 104.227 36.1198C104.228 38.3387 104.927 39.4485 106.328 39.4485C107.762 39.4485 108.933 38.3189 109.819 36.0611C110.51 34.2807 110.87 32.513 110.881 30.7538H110.882ZM114.909 31.5927C114.909 34.1312 114.055 36.3049 112.336 38.115C110.619 39.923 108.517 40.8276 106.033 40.8276C104.294 40.8272 102.914 40.3773 101.886 39.4784C100.802 38.5392 100.254 37.1994 100.254 35.4612C100.256 32.9419 101.13 30.7481 102.86 28.8795C104.6 27.0103 106.7 26.0762 109.163 26.0762C110.882 26.0762 112.271 26.566 113.322 27.546C114.383 28.5245 114.908 29.8737 114.908 31.5927H114.909Z" fill="#201E1E"/>
<path fill-rule="evenodd" clip-rule="evenodd" d="M127.581 19.9894C126.475 19.9696 125.534 20.3642 124.757 21.1746C123.97 21.9833 123.466 22.958 123.225 24.0977C123.225 24.0973 123.083 24.8467 122.788 26.3467L126.039 26.3463L125.808 27.6355H122.515L119.888 40.4668H115.981L118.64 27.6355H116.747L117.009 26.3463H118.882L119.176 24.9064C120.019 20.7887 122.678 18.7106 127.143 18.6707L127.581 19.9894Z" fill="#201E1E"/>
<path fill-rule="evenodd" clip-rule="evenodd" d="M135.428 26.3463L135.187 27.6355H131.784L130.066 35.88C129.934 36.5198 129.868 36.9897 129.868 37.2901C129.869 38.2091 130.492 38.6693 131.762 38.6693C132.255 38.6689 132.812 38.6182 133.447 38.5184L132.703 40.1676C130.809 40.5679 129.365 40.7675 128.38 40.7675C126.652 40.7675 125.775 40.018 125.775 38.5184C125.775 38.1193 125.841 37.6493 125.95 37.1095L127.91 27.6355H126.137L126.399 26.3463H128.15L128.862 23.0176L132.857 22.3582L132.058 26.3463H135.428Z" fill="#201E1E"/>
<path fill-rule="evenodd" clip-rule="evenodd" d="M19.3038 27.5159C19.3038 30.7736 18.6142 33.8829 16.6555 36.5478C13.6021 40.711 8.41459 40.5247 4.89084 40.4672L5.16479 39.0916C9.0825 39.0862 11.3148 38.3001 12.8799 35.5822C14.1611 33.2832 14.8057 30.4035 14.8057 27.7255C14.8063 24.1074 13.0877 22.2985 9.65148 22.2985L7.55099 22.2981L3.81938 40.4668H0L4.05921 20.9194H7.84629C11.3589 20.9194 13.8757 21.1991 15.3969 21.7586C18.0025 22.7186 19.3038 24.6374 19.3038 27.5159Z" fill="#201E1E"/>
<path fill-rule="evenodd" clip-rule="evenodd" d="M30.2045 29.591C29.8536 29.1863 29.4048 28.9849 28.8358 28.9849C27.7312 28.9846 26.5923 29.9036 25.4103 31.7435L23.6053 40.4668H19.6987L22.565 26.6157L26.5924 25.9565L26.0024 28.8947C27.5994 26.995 28.7921 26.1171 30.0506 26.0473C31.2006 25.9816 31.8673 26.5906 32.2613 26.9752C31.9662 27.2389 31.6919 27.5259 31.4295 27.8373C30.948 28.3906 30.5429 28.9748 30.2035 29.591H30.2045Z" fill="#201E1E"/>
<path fill-rule="evenodd" clip-rule="evenodd" d="M38.6971 27.4251C37.7885 27.416 36.9999 27.875 36.3323 28.7739C35.7742 29.4931 35.3911 30.3635 35.1721 31.3835H38.904C39.7915 30.0377 40.3816 27.4418 38.6961 27.4251H38.6971ZM42.4829 32.792H34.9754C34.7129 33.9116 34.5814 34.8008 34.5814 35.4612C34.5814 37.7989 35.8071 38.6505 38.313 38.5807C39.123 38.5583 40.0204 38.361 40.7098 38.1361C40.8196 38.4896 41.0054 38.8232 41.3007 39.1337C41.3565 39.1934 41.4102 39.2499 41.4648 39.3055V39.321C40.1414 39.8529 38.2801 40.4672 35.5006 40.4672C33.903 40.4668 32.5566 40.1423 31.6484 39.3131C30.74 38.4839 30.3789 37.48 30.3789 35.8804C30.3792 33.2411 31.1997 30.9731 32.8411 29.0743C34.5603 27.076 36.6934 26.0762 39.2651 26.0762C42.7132 26.0762 44.54 28.6367 42.4827 32.792H42.4829Z" fill="#201E1E"/>
<path fill-rule="evenodd" clip-rule="evenodd" d="M59.4237 25.9565L56.9946 37.6195C56.8408 38.3589 56.7641 38.8588 56.7641 39.1183C56.7313 39.8696 57.0595 40.2888 57.4863 40.4673L53.6889 40.4669C52.683 40.4669 52.8241 39.2302 52.9665 38.5484L55.0468 28.3551C54.3352 27.8948 53.6012 27.6658 52.8461 27.6658C51.4678 27.6654 50.3402 28.7042 49.4428 30.7827C48.7212 32.4631 48.3483 33.762 48.3483 35.4003C48.349 37.7792 49.2129 38.9566 50.8325 38.9566C51.1946 38.9562 51.533 38.922 51.8612 38.8522C51.7744 39.2912 51.675 39.7302 51.5985 40.1713C50.8657 40.3607 49.9788 40.4673 49.0267 40.4673C47.4738 40.4669 46.2798 40.0226 45.4372 39.1337C44.5956 38.2436 44.1787 37.0197 44.1787 35.4612C44.1793 33.0626 44.9229 31.2437 46.4222 29.284C48.0638 27.1656 50.0337 26.1061 52.3206 26.1061C53.9412 26.1061 55.2537 26.5262 56.2604 27.3655L57.5633 26.2554L59.4237 25.9565Z" fill="#201E1E"/>
<path fill-rule="evenodd" clip-rule="evenodd" d="M82.4603 31.802L80.6766 40.4668H76.8034L78.4556 32.2523C78.5973 31.5727 78.6624 30.9932 78.6624 30.5131C78.6631 29.2139 78.1701 28.5647 77.1856 28.5647C76.3978 28.5644 75.4784 28.9547 74.4381 29.734C74.4387 30.3335 74.3508 31.0231 74.1976 31.8023L72.4253 40.4668H68.5408L70.258 32.2523C70.4011 31.633 70.4656 31.0831 70.4656 30.603C70.4662 29.2437 69.9733 28.5647 68.9887 28.5647C68.2009 28.5644 67.3138 28.9449 66.351 29.704L64.1627 40.4668H60.2881L63.1236 26.6157L67.1508 25.9565L66.7124 28.0246C68.5837 26.7866 70.1815 26.167 71.5059 26.167C73.0049 26.167 73.9458 26.9055 74.3508 28.3851C76.5395 26.9051 78.3454 26.167 79.7571 26.167C81.7169 26.167 82.69 27.3452 82.69 29.704C82.6907 30.3435 82.6134 31.0432 82.4603 31.8023V31.802Z" fill="#201E1E"/>
<path fill-rule="evenodd" clip-rule="evenodd" d="M72.4805 15.0912C71.7908 18.1852 73.6175 20.8509 78.4 21.8442C85.175 23.2531 90.7225 24.4313 91.4451 30.642C92.5734 40.3264 82.6351 46.3432 74.2522 46.4638C72.1185 46.4946 69.0325 46.2964 66.7231 45.1702C65.9245 44.7822 65.4208 44.3379 65.2895 44.4498C65.1698 44.5506 65.4099 44.89 66.3949 45.5816C68.8572 47.3018 71.9654 47.9538 75.6095 47.9981C83.895 48.0999 95.4613 43.9389 97.1026 33.373C98.6131 23.571 87.8339 22.498 83.445 21.4772C78.9258 20.4227 75.6531 18.5409 76.8573 14.3676C77.7116 11.3902 80.7203 8.59589 86.3342 7.44622C86.3893 7.43398 86.3886 7.36861 86.3127 7.36548C84.1683 7.37024 81.4316 7.88736 78.0937 9.40626C75.6531 10.5144 72.9392 13.0219 72.4791 15.0912H72.4805Z" fill="#E30016"/>
<path fill-rule="evenodd" clip-rule="evenodd" d="M104.48 4.56093C104.48 4.56093 103.385 4.28725 102.159 4.12542C101.36 4.02019 100.594 3.95266 100.167 3.91932C100.113 4.05442 100.058 4.23072 100.036 4.45126C100.89 4.4582 102.914 4.48147 104.479 4.56126L104.48 4.56093ZM98.9965 3.85178C98.253 3.87252 96.5666 3.93382 95.0676 4.06796C93.0757 4.24734 90.2523 4.83051 90.2523 4.83051L90.4826 4.91349C91.533 4.85913 94.4981 4.61656 96.2497 4.53895C97.519 4.48242 98.3068 4.46352 98.7446 4.45822C98.799 4.20966 98.887 4.00483 98.9965 3.85178ZM87.8775 8.62896L88.0313 8.80746C88.0313 8.80746 92.8782 9.01826 95.5163 8.64563C98.1429 8.27204 98.9743 7.68792 98.9743 7.68792C98.975 7.68792 92.3316 8.49951 87.8775 8.6293V8.62896ZM100.802 7.63799C100.802 7.63799 100.101 6.74817 99.8494 5.46334C99.7077 4.70174 99.8279 4.17415 99.9481 3.87063L99.3142 3.83701C99.1389 4.02211 98.9965 4.32938 99.0072 4.83051C99.018 6.25894 99.5324 7.07176 100.123 7.87335L100.802 7.63799ZM104.502 5.78793C104.502 5.78793 103.866 6.29819 102.203 6.86789C101.678 7.0485 101.217 7.16917 100.911 7.24148C100.825 7.13053 100.737 7.00421 100.659 6.8666C101.35 6.72585 102.87 6.38118 104.501 5.78822L104.502 5.78793ZM106.636 4.84247C106.636 4.84247 103.976 7.02306 99.2477 8.39081C95.6472 9.43273 90.7331 9.47266 88.4685 9.30328C86.9037 9.18547 86.7828 9.05255 86.6518 7.40644C86.8164 7.6169 86.991 7.8356 87.2099 8.08606C89.1468 7.80104 90.985 7.33569 93.5901 6.89898C91.2704 5.89003 89.8037 5.37346 88.6431 4.97443C90.2415 4.4412 93.6559 3.38955 98.2846 3.47601C102.904 3.5624 106.635 4.84282 106.635 4.84282L106.636 4.84247ZM87.7251 1.29224C87.3738 1.25014 86.6955 1.12163 86.5309 0.701517C86.4557 0.504249 86.8157 0.294666 87.0676 0.192834C88.0635 -0.209663 90.8648 0.0929024 91.664 0.418737C91.7298 0.44513 91.6855 0.478741 91.6311 0.517447C91.3584 0.711244 90.2738 0.934376 89.4423 1.05505C90.0441 1.55591 91.1274 2.44068 92.5505 3.64124C91.2153 3.84395 90.2194 4.08897 89.2012 4.35045C88.7748 3.52342 88.2274 2.38634 87.7237 1.29224H87.7251ZM85.7438 5.69522C85.1199 5.68175 83.4886 5.80052 83.0729 5.12212C82.8654 4.79472 83.1716 4.44691 83.7955 4.20964C85.4147 3.60008 87.9104 3.83736 88.7311 4.16659C88.8191 4.20305 88.8842 4.24734 88.8077 4.32183C88.5894 4.53896 88.2388 4.76955 87.7459 4.99457C88.6767 5.29272 90.3174 5.91582 92.4847 6.79687C90.351 7.13053 88.9057 7.44977 87.3194 7.6669C86.6639 6.97721 86.5202 6.6083 85.7432 5.69522H85.7438ZM88.3046 13.4872C87.8889 13.5539 86.7499 13.9366 86.6733 14.4786C86.6525 14.7177 87.1327 14.8685 87.4618 14.9241C88.7533 15.1412 91.6089 14.3611 92.3974 13.7546C92.4639 13.7003 92.4189 13.6814 92.3423 13.6516C91.9602 13.4995 90.9413 13.3735 89.9017 13.3389C90.5149 12.7413 91.6197 11.5844 93.3598 9.74979C91.7412 9.76734 90.2194 9.7655 88.9057 9.74571C88.6874 10.8175 88.4463 12.364 88.304 13.4879L88.3046 13.4872Z" fill="#201E1E"/>
</svg>
