<svg width="135" height="48" viewBox="0 0 135 48" fill="none" xmlns="http://www.w3.org/2000/svg">
<path fill-rule="evenodd" clip-rule="evenodd" d="M110.531 30.7538C110.552 28.5546 109.865 27.4549 108.468 27.4549C107.028 27.4549 105.861 28.5845 104.955 30.8436C104.247 32.6227 103.897 34.3816 103.897 36.1198C103.898 38.3387 104.595 39.4485 105.992 39.4485C107.421 39.4485 108.589 38.3189 109.472 36.0611C110.16 34.2807 110.519 32.513 110.53 30.7538H110.531ZM114.546 31.5927C114.546 34.1312 113.694 36.3049 111.981 38.115C110.268 39.923 108.174 40.8276 105.697 40.8276C103.964 40.8272 102.588 40.3773 101.563 39.4784C100.483 38.5392 99.937 37.1994 99.937 35.4612C99.9384 32.9419 100.81 30.7481 102.534 28.8795C104.269 27.0103 106.363 26.0762 108.818 26.0762C110.531 26.0762 111.915 26.566 112.963 27.546C114.021 28.5245 114.544 29.8737 114.544 31.5927H114.546Z" fill="#232C6B"/>
<path fill-rule="evenodd" clip-rule="evenodd" d="M127.178 19.9894C126.075 19.9696 125.137 20.3642 124.363 21.1746C123.578 21.9833 123.075 22.958 122.836 24.0977C122.836 24.0973 122.694 24.8467 122.399 26.3467L125.64 26.3463L125.41 27.6355H122.127L119.508 40.4668H115.614L118.265 27.6355H116.377L116.639 26.3463H118.505L118.799 24.9064C119.64 20.7887 122.29 18.7106 126.741 18.6707L127.178 19.9894Z" fill="#232C6B"/>
<path fill-rule="evenodd" clip-rule="evenodd" d="M135 26.3463L134.76 27.6355H131.367L129.654 35.88C129.523 36.5198 129.457 36.9897 129.457 37.2901C129.458 38.2091 130.079 38.6693 131.345 38.6693C131.837 38.6689 132.392 38.6182 133.024 38.5184L132.283 40.1676C130.395 40.5679 128.955 40.7675 127.974 40.7675C126.251 40.7675 125.377 40.018 125.377 38.5184C125.377 38.1193 125.443 37.6493 125.552 37.1095L127.505 27.6355H125.738L126 26.3463H127.745L128.454 23.0176L132.437 22.3582L131.64 26.3463H135Z" fill="#232C6B"/>
<path fill-rule="evenodd" clip-rule="evenodd" d="M19.2427 27.5159C19.2427 30.7736 18.5553 33.8829 16.6028 36.5478C13.559 40.711 8.38797 40.5247 4.87537 40.4672L5.14844 39.0916C9.05376 39.0862 11.279 38.3001 12.8391 35.5822C14.1162 33.2832 14.7588 30.4035 14.7588 27.7255C14.7595 24.1074 13.0463 22.2985 9.62094 22.2985L7.52709 22.2981L3.8073 40.4668H0L4.04636 20.9194H7.82146C11.3229 20.9194 13.8318 21.1991 15.3482 21.7586C17.9455 22.7186 19.2427 24.6374 19.2427 27.5159Z" fill="#232C6B"/>
<path fill-rule="evenodd" clip-rule="evenodd" d="M30.109 29.591C29.7592 29.1863 29.3118 28.9849 28.7447 28.9849C27.6435 28.9846 26.5082 29.9036 25.33 31.7435L23.5307 40.4668H19.6365L22.4937 26.6157L26.5083 25.9565L25.9202 28.8947C27.5121 26.995 28.7011 26.1171 29.9556 26.0473C31.1019 25.9816 31.7665 26.5906 32.1592 26.9752C31.8651 27.2389 31.5917 27.5259 31.3301 27.8373C30.8502 28.3906 30.4463 28.9748 30.108 29.591H30.109Z" fill="#232C6B"/>
<path fill-rule="evenodd" clip-rule="evenodd" d="M38.5745 27.4251C37.6688 27.416 36.8827 27.875 36.2173 28.7739C35.6609 29.4931 35.2791 30.3635 35.0607 31.3835H38.7808C39.6655 30.0377 40.2537 27.4418 38.5736 27.4251H38.5745ZM42.3484 32.792H34.8647C34.603 33.9116 34.4719 34.8008 34.4719 35.4612C34.4719 37.7989 35.6937 38.6505 38.1917 38.5807C38.9991 38.5583 39.8937 38.361 40.5809 38.1361C40.6904 38.4896 40.8756 38.8232 41.17 39.1337C41.2256 39.1934 41.2791 39.2499 41.3335 39.3055V39.321C40.0143 39.8529 38.1589 40.4672 35.3882 40.4672C33.7956 40.4668 32.4535 40.1423 31.5482 39.3131C30.6427 38.4839 30.2827 37.48 30.2827 35.8804C30.283 33.2411 31.1009 30.9731 32.7371 29.0743C34.4509 27.076 36.5772 26.0762 39.1408 26.0762C42.5779 26.0762 44.399 28.6367 42.3482 32.792H42.3484Z" fill="#232C6B"/>
<path fill-rule="evenodd" clip-rule="evenodd" d="M59.2358 25.9565L56.8144 37.6195C56.661 38.3589 56.5847 38.8588 56.5847 39.1183C56.5519 39.8696 56.8791 40.2888 57.3045 40.4673L53.5192 40.4669C52.5164 40.4669 52.6571 39.2302 52.7991 38.5484L54.8727 28.3551C54.1634 27.8948 53.4317 27.6658 52.679 27.6658C51.3051 27.6654 50.1811 28.7042 49.2865 30.7827C48.5672 32.4631 48.1955 33.762 48.1955 35.4003C48.1962 37.7792 49.0573 38.9566 50.6718 38.9566C51.0327 38.9562 51.3701 38.922 51.6972 38.8522C51.6107 39.2912 51.5117 39.7302 51.4353 40.1713C50.7049 40.3607 49.8208 40.4673 48.8717 40.4673C47.3237 40.4669 46.1335 40.0226 45.2936 39.1337C44.4547 38.2436 44.0391 37.0197 44.0391 35.4612C44.0397 33.0626 44.7809 31.2437 46.2754 29.284C47.9119 27.1656 49.8755 26.1061 52.1552 26.1061C53.7707 26.1061 55.079 26.5262 56.0825 27.3655L57.3813 26.2554L59.2358 25.9565Z" fill="#232C6B"/>
<path fill-rule="evenodd" clip-rule="evenodd" d="M82.1992 31.802L80.4211 40.4668H76.5603L78.2072 32.2523C78.3484 31.5727 78.4134 30.9932 78.4134 30.5131C78.414 29.2139 77.9226 28.5647 76.9412 28.5647C76.1559 28.5644 75.2394 28.9547 74.2024 29.734C74.203 30.3335 74.1153 31.0231 73.9627 31.8023L72.196 40.4668H68.3237L70.0356 32.2523C70.1782 31.633 70.2424 31.0831 70.2424 30.603C70.2431 29.2437 69.7517 28.5647 68.7703 28.5647C67.985 28.5644 67.1006 28.9449 66.1409 29.704L63.9596 40.4668H60.0972L62.9237 26.6157L66.9381 25.9565L66.5012 28.0246C68.3666 26.7866 69.9593 26.167 71.2795 26.167C72.7737 26.167 73.7117 26.9055 74.1153 28.3851C76.2972 26.9051 78.0974 26.167 79.5046 26.167C81.4581 26.167 82.4282 27.3452 82.4282 29.704C82.4289 30.3435 82.3519 31.0432 82.1992 31.8023V31.802Z" fill="#232C6B"/>
<path fill-rule="evenodd" clip-rule="evenodd" d="M72.2509 15.0912C71.5633 18.1852 73.3843 20.8509 78.1516 21.8442C84.9052 23.2531 90.4351 24.4313 91.1554 30.642C92.2802 40.3264 82.3733 46.3432 74.0169 46.4638C71.89 46.4946 68.8138 46.2964 66.5117 45.1702C65.7157 44.7822 65.2135 44.3379 65.0827 44.4498C64.9633 44.5506 65.2026 44.89 66.1845 45.5816C68.639 47.3018 71.7374 47.9538 75.3699 47.9981C83.6292 48.0999 95.1589 43.9389 96.7951 33.373C98.3007 23.571 87.5557 22.498 83.1807 21.4772C78.6758 20.4227 75.4134 18.5409 76.6138 14.3676C77.4654 11.3902 80.4646 8.59589 86.0607 7.44622C86.1156 7.43398 86.115 7.36861 86.0393 7.36548C83.9017 7.37024 81.1736 7.88736 77.8463 9.40626C75.4134 10.5144 72.7081 13.0219 72.2495 15.0912H72.2509Z" fill="#E30016"/>
<path fill-rule="evenodd" clip-rule="evenodd" d="M104.149 4.56093C104.149 4.56093 103.057 4.28725 101.836 4.12542C101.039 4.02019 100.276 3.95266 99.8499 3.91932C99.7956 4.05442 99.7407 4.23072 99.7193 4.45126C100.57 4.4582 102.588 4.48147 104.148 4.56126L104.149 4.56093ZM98.683 3.85178C97.9419 3.87252 96.2608 3.93382 94.7665 4.06796C92.7809 4.24734 89.9664 4.83051 89.9664 4.83051L90.196 4.91349C91.2431 4.85913 94.1988 4.61656 95.9448 4.53895C97.2101 4.48242 97.9954 4.46352 98.4319 4.45822C98.4861 4.20966 98.5738 4.00483 98.683 3.85178ZM87.5992 8.62896L87.7525 8.80746C87.7525 8.80746 92.5841 9.01826 95.2137 8.64563C97.8321 8.27204 98.6609 7.68792 98.6609 7.68792C98.6615 7.68792 92.0391 8.49951 87.5992 8.6293V8.62896ZM100.483 7.63799C100.483 7.63799 99.7842 6.74817 99.5332 5.46334C99.3919 4.70174 99.5118 4.17415 99.6316 3.87063L98.9996 3.83701C98.8249 4.02211 98.683 4.32938 98.6937 4.83051C98.7044 6.25894 99.2172 7.07176 99.8063 7.87335L100.483 7.63799ZM104.171 5.78793C104.171 5.78793 103.537 6.29819 101.879 6.86789C101.355 7.0485 100.897 7.16917 100.592 7.24148C100.505 7.13053 100.418 7.00421 100.341 6.8666C101.029 6.72585 102.544 6.38118 104.17 5.78822L104.171 5.78793ZM106.298 4.84247C106.298 4.84247 103.646 7.02306 98.9333 8.39081C95.3443 9.43273 90.4458 9.47266 88.1883 9.30328C86.6284 9.18547 86.5079 9.05255 86.3774 7.40644C86.5414 7.6169 86.7155 7.8356 86.9337 8.08606C88.8645 7.80104 90.6968 7.33569 93.2937 6.89898C90.9813 5.89003 89.5192 5.37346 88.3624 4.97443C89.9557 4.4412 93.3593 3.38955 97.9733 3.47601C102.578 3.5624 106.297 4.84282 106.297 4.84282L106.298 4.84247ZM87.4472 1.29224C87.0971 1.25014 86.4209 1.12163 86.2569 0.701517C86.1819 0.504249 86.5407 0.294666 86.7918 0.192834C87.7846 -0.209663 90.577 0.0929024 91.3736 0.418737C91.4393 0.44513 91.3951 0.478741 91.3408 0.517447C91.069 0.711244 89.9878 0.934376 89.159 1.05505C89.7589 1.55591 90.8387 2.44068 92.2574 3.64124C90.9264 3.84395 89.9336 4.08897 88.9187 4.35045C88.4936 3.52342 87.948 2.38634 87.4458 1.29224H87.4472ZM85.4722 5.69522C84.8503 5.68175 83.2241 5.80052 82.8097 5.12212C82.6029 4.79472 82.9082 4.44691 83.5301 4.20964C85.1442 3.60008 87.632 3.83736 88.4501 4.16659C88.5378 4.20305 88.6027 4.24734 88.5264 4.32183C88.3088 4.53896 87.9593 4.76955 87.4679 4.99457C88.3958 5.29272 90.0313 5.91582 92.1917 6.79687C90.0648 7.13053 88.6241 7.44977 87.0428 7.6669C86.3894 6.97721 86.2461 6.6083 85.4716 5.69522H85.4722ZM88.0249 13.4872C87.6105 13.5539 86.4751 13.9366 86.3988 14.4786C86.378 14.7177 86.8567 14.8685 87.1848 14.9241C88.4722 15.1412 91.3188 14.3611 92.1047 13.7546C92.171 13.7003 92.1261 13.6814 92.0498 13.6516C91.6689 13.4995 90.6533 13.3735 89.6169 13.3389C90.2282 12.7413 91.3295 11.5844 93.0641 9.74979C91.4506 9.76734 89.9336 9.7655 88.6241 9.74571C88.4065 10.8175 88.1662 12.364 88.0243 13.4879L88.0249 13.4872Z" fill="#232C6B"/>
</svg>
