<svg width="25" height="24" viewBox="0 0 25 24" fill="none" xmlns="http://www.w3.org/2000/svg">
<g clip-path="url(#clip0_2735_23361)">
<g clip-path="url(#clip1_2735_23361)">
<path d="M18.0015 1.14282H15.4234V2.73751H17.2041V6.29898C17.2041 8.98098 15.0221 11.1628 12.3403 11.1628H11.9683C9.28625 11.1628 7.10445 8.9807 7.10445 6.29898V2.73751H8.88519V1.14282H6.30711C5.86672 1.14282 5.50977 1.49978 5.50977 1.94017V6.29898C5.50977 9.86017 8.40706 12.7575 11.9683 12.7575H12.3403C15.9015 12.7575 18.7988 9.86017 18.7988 6.29898V1.94017C18.7988 1.49978 18.4419 1.14282 18.0015 1.14282Z" fill="white"/>
<path d="M15.3437 0C14.9033 0 14.5464 0.356953 14.5464 0.797344V3.02991C14.5464 3.4703 14.9033 3.82725 15.3437 3.82725C15.7841 3.82725 16.1411 3.4703 16.1411 3.02991V0.797344C16.1411 0.356953 15.7841 0 15.3437 0Z" fill="white"/>
<path d="M9.0449 0C8.60451 0 8.24756 0.356953 8.24756 0.797344V3.02991C8.24756 3.4703 8.60451 3.82725 9.0449 3.82725C9.48529 3.82725 9.84224 3.4703 9.84224 3.02991V0.797344C9.84224 0.356953 9.48529 0 9.0449 0Z" fill="white"/>
<path d="M13.005 16.4522V11.934H11.4103V16.4522H8.8322C6.75114 16.4522 5.05811 18.1453 5.05811 20.2261C5.05811 22.3071 6.76309 24.0001 8.85878 24.0001H9.23087C11.3119 24.0001 13.005 22.3071 13.005 20.2261V18.0469H15.7159V16.4522H13.005ZM11.4103 20.2258C11.4103 21.4274 10.4325 22.4052 9.23087 22.4052H8.85878C7.62184 22.4052 6.65279 21.4481 6.65279 20.2258C6.65279 19.0242 7.63061 18.0466 8.8322 18.0466H11.4103V20.2258Z" fill="white"/>
<path d="M17.4434 14.7511C16.0661 14.7511 14.9453 15.8716 14.9453 17.2494C14.9453 18.6267 16.0659 19.7475 17.4434 19.7475C18.8209 19.7475 19.9417 18.6267 19.9417 17.2494C19.9417 15.8719 18.8212 14.7511 17.4434 14.7511ZM17.4434 18.1526C16.9453 18.1526 16.54 17.7473 16.54 17.2492C16.54 16.7509 16.9453 16.3456 17.4434 16.3456C17.9417 16.3456 18.347 16.7509 18.347 17.2492C18.347 17.7473 17.9417 18.1526 17.4434 18.1526Z" fill="white"/>
</g>
</g>
<defs>
<clipPath id="clip0_2735_23361">
<rect width="24" height="24" fill="white" transform="translate(0.5)"/>
</clipPath>
<clipPath id="clip1_2735_23361">
<rect width="24" height="24" fill="white" transform="translate(0.5)"/>
</clipPath>
</defs>
</svg>
