<svg width="22" height="26" viewBox="0 0 22 26" fill="none" xmlns="http://www.w3.org/2000/svg">
<path d="M11 26C12.4667 26 13.6667 24.8 13.6667 23.3333H8.33337C8.33337 24.8 9.53337 26 11 26ZM19 18V11.3333C19 7.24 16.8267 3.81333 13 2.90667V2C13 0.893333 12.1067 0 11 0C9.89337 0 9.00004 0.893333 9.00004 2V2.90667C5.18671 3.81333 3.00004 7.22667 3.00004 11.3333V18L0.333374 20.6667V22H21.6667V20.6667L19 18ZM16.3334 19.3333H5.66671V11.3333C5.66671 8.02667 7.68004 5.33333 11 5.33333C14.32 5.33333 16.3334 8.02667 16.3334 11.3333V19.3333Z" fill="#201E1E"/>
</svg>
