<svg width="18" height="18" viewBox="0 0 18 18" fill="none" xmlns="http://www.w3.org/2000/svg">
<path d="M7.95833 2.54167C8.19167 2.54167 8.375 2.725 8.375 2.95833V4.625H13.375V9.625H15.0417C15.275 9.625 15.4583 9.80833 15.4583 10.0417C15.4583 10.275 15.275 10.4583 15.0417 10.4583H13.375V15.4583H11.6083C11.0417 14 9.61667 12.9583 7.95833 12.9583C6.3 12.9583 4.875 14 4.30833 15.4583H2.54167V13.6917C4 13.125 5.04167 11.7 5.04167 10.0417C5.04167 8.38333 4.00833 6.95833 2.55 6.39167L2.54167 4.625H7.54167V2.95833C7.54167 2.725 7.725 2.54167 7.95833 2.54167ZM7.95833 0.875C6.80833 0.875 5.875 1.80833 5.875 2.95833H2.54167C1.625 2.95833 0.883333 3.70833 0.883333 4.625V7.79167H1.125C2.36667 7.79167 3.375 8.8 3.375 10.0417C3.375 11.2833 2.36667 12.2917 1.125 12.2917H0.875V15.4583C0.875 16.375 1.625 17.125 2.54167 17.125H5.70833V16.875C5.70833 15.6333 6.71667 14.625 7.95833 14.625C9.2 14.625 10.2083 15.6333 10.2083 16.875V17.125H13.375C14.2917 17.125 15.0417 16.375 15.0417 15.4583V12.125C16.1917 12.125 17.125 11.1917 17.125 10.0417C17.125 8.89167 16.1917 7.95833 15.0417 7.95833V4.625C15.0417 3.70833 14.2917 2.95833 13.375 2.95833H10.0417C10.0417 1.80833 9.10833 0.875 7.95833 0.875Z" fill="#236BE2"/>
</svg>
