<svg width="300" height="90" viewBox="0 0 300 90" fill="none" xmlns="http://www.w3.org/2000/svg">
<circle cx="150" cy="45" r="45" fill="white"/>
<path d="M150 41C161.838 41 168.855 30.6608 169.958 31.6209C169.977 31.6371 169.965 31.6667 169.94 31.6667H130.077C130.05 31.6667 130.04 31.6351 130.064 31.6237C131.334 31.0422 138.217 41 150 41ZM150 41V42.3333M150 67.6667H160.667M150 67.6667H139.333M150 67.6667L150 62.3333M150 49V55.6667" stroke="#236BE2" stroke-width="2" stroke-linecap="round"/>
<path d="M143.333 62.3326C144.667 58.3326 156.667 59.666 156.667 55.666C156.667 54.3564 155.411 53.6552 153.576 53.2257M148.945 23.666H146.144C146.058 23.666 145.981 23.7211 145.954 23.8027L144.698 27.5711C144.685 27.6102 144.722 27.6474 144.761 27.6344L148.544 26.3734C148.619 26.3486 148.672 26.2825 148.68 26.2045L148.945 23.666ZM148.945 23.666C153.825 20.4041 159.477 23.0917 162 27.3071M146.18 52.3328C142.531 51.9453 140.667 50.3326 140.667 48.9993C140.667 45.1097 156.805 46.2435 160.333 42.7344" stroke="#236BE2" stroke-width="2" stroke-linecap="round"/>
</svg>
