<svg width="300" height="90" viewBox="0 0 300 90" fill="none" xmlns="http://www.w3.org/2000/svg">
<circle cx="150" cy="45" r="45" fill="white"/>
<path d="M139.492 24.0392C139.387 26.4303 140.174 28.0994 142.024 30.8451M139.492 24.0392C144.464 18.0138 155.536 18.0138 160.508 24.0392M139.492 24.0392C131.865 32.6106 139.297 41.3481 144.741 48.2241M142.024 30.8451C144.558 34.6058 147.193 38.3192 150 41.8809M142.024 30.8451C147.589 26.9595 152.411 26.9595 157.976 30.8451M160.508 24.0392C160.613 26.4303 159.826 28.0994 157.976 30.8451M160.508 24.0392C168.135 32.6106 160.703 41.3481 155.259 48.2241M157.976 30.8451C155.442 34.6058 152.807 38.3192 150 41.8809M150 41.8809C148.283 44.0597 146.529 46.1563 144.741 48.2241M144.741 48.2241C142.231 51.1254 135.101 59.1637 134.471 59.8745C134.441 59.9077 134.442 59.95 134.466 59.9876C134.863 60.6199 138.153 65.8482 139.333 67.6664C139.41 67.7896 144.6 61.5041 150 54.804M150 54.804C155.4 61.5041 160.59 67.7896 160.667 67.6664C161.629 66.1839 165.127 60.6342 165.535 59.9868C165.558 59.9492 165.559 59.9081 165.529 59.8748C164.879 59.1404 157.291 50.5729 155.259 48.2241M150 54.804C151.79 52.5835 153.602 50.3175 155.259 48.2241" stroke="#236BE2" stroke-width="2" stroke-miterlimit="10"/>
</svg>
