<svg width="300" height="90" viewBox="0 0 300 90" fill="none" xmlns="http://www.w3.org/2000/svg">
<circle cx="150" cy="45" r="45" fill="white"/>
<path d="M136.667 64.3331C136.667 63.2286 137.562 62.3331 138.667 62.3331H161.333C162.438 62.3331 163.333 63.2286 163.333 64.3331V67.1665C163.333 67.4426 163.109 67.6665 162.833 67.6665H137.167C136.89 67.6665 136.667 67.4426 136.667 67.1665V64.3331Z" stroke="#236BE2" stroke-width="2"/>
<path d="M141.864 52.9999C141.864 52.9999 145.498 55.7243 147.7 56.1773C149.662 56.581 151.696 56.4612 153.597 55.8297C155.498 55.1983 157.2 54.0776 158.53 52.5803C159.861 51.0829 160.774 49.2617 161.178 47.2997C161.581 45.3376 161.461 43.3039 160.83 41.4029C160.527 40.4922 160.113 39.6274 159.598 38.8273L159.333 38.3332M136.144 52.9999C136.144 52.9999 138.085 55.8165 139.372 56.9598C141.471 58.8255 144.025 60.1056 146.776 60.6717C149.527 61.2377 152.378 61.0696 155.044 60.1843C157.709 59.299 160.094 57.7276 161.96 55.6282C163.826 53.5288 165.106 50.9753 165.672 48.2244C166.238 45.4734 166.07 42.6219 165.184 39.9565C164.72 38.5579 164.066 37.2363 163.247 36.0265L163.051 35.8138M159.333 38.3332C161.02 38.3332 162.462 37.29 163.051 35.8138M159.333 38.3332C157.925 38.3332 156.686 37.6047 155.973 36.5039M163.051 35.8138C163.233 35.3559 163.333 34.8563 163.333 34.3332C163.333 33.3027 162.944 32.3632 162.304 31.6541M163.546 26.5947L163.333 26.7603M163.546 26.5947C164.061 27.2662 164.945 27.2792 165.568 26.777C166.498 26.0275 166.592 24.6909 165.883 23.7655L165.242 22.9294C164.533 22.004 163.218 21.7459 162.253 22.4488C161.61 22.9161 161.397 23.789 161.902 24.4486M163.546 26.5947L162.724 25.5217L161.902 24.4486M161.902 24.4486L161.693 24.6185M161.693 24.6185L163.333 26.7603M161.693 24.6185C160.727 23.3583 160.245 22.7282 159.586 22.5293C159.366 22.4625 159.135 22.432 158.905 22.439C158.218 22.4597 157.588 22.9424 156.327 23.9079L143.012 34.1083C142.654 34.3826 142.475 34.5198 142.347 34.6611C141.747 35.3196 141.62 36.2809 142.027 37.0727C142.115 37.2427 142.252 37.4217 142.526 37.7798M163.333 26.7603C163.971 27.593 164.29 28.0094 164.397 28.445C164.523 28.9637 164.451 29.5111 164.194 29.9789C163.978 30.3718 163.561 30.6908 162.728 31.3287L162.304 31.6541M142.526 37.7798L145.851 42.1197M142.526 37.7798L139.796 39.8727C139.156 40.3631 138.836 40.6083 138.656 40.9009C138.376 41.3537 138.304 41.9041 138.456 42.4139C138.554 42.7434 138.799 43.0634 139.289 43.7034C139.78 44.3435 140.025 44.6635 140.317 44.844C140.77 45.1233 141.321 45.1961 141.83 45.0442C142.16 44.9461 142.48 44.7009 143.12 44.2105L145.851 42.1197M145.851 42.1197C146.421 42.864 147.487 43.0052 148.231 42.4349L155.973 36.5039M155.973 36.5039C155.568 35.8787 155.333 35.1334 155.333 34.3332C155.333 32.1241 157.124 30.3332 159.333 30.3332C160.512 30.3332 161.572 30.843 162.304 31.6541" stroke="#236BE2" stroke-width="2"/>
<path d="M135.333 53H146" stroke="#236BE2" stroke-width="2" stroke-linecap="round"/>
</svg>
