<svg width="300" height="90" viewBox="0 0 300 90" fill="none" xmlns="http://www.w3.org/2000/svg">
<circle cx="150" cy="45" r="45" fill="white"/>
<path d="M140.667 54.3331C138 54.3331 132.667 56.9998 132.667 63.6665" stroke="#236BE2" stroke-width="2" stroke-linecap="round"/>
<path d="M159.333 54.3331C162 54.3331 167.333 56.9998 167.333 63.6665" stroke="#236BE2" stroke-width="2" stroke-linecap="round"/>
<path d="M155.333 54.3331L150.485 60.1513M148.667 62.3331L150.485 60.1513M144.667 54.3331L150.485 60.1513" stroke="#236BE2" stroke-width="2" stroke-linecap="round"/>
<path d="M140.667 27.6669C136.667 30.3335 132.667 44.4669 143.333 47.6669" stroke="#236BE2" stroke-width="2" stroke-linecap="round"/>
<path d="M159.333 27.6669C163.333 30.3335 167.333 44.4669 156.667 47.6669" stroke="#236BE2" stroke-width="2" stroke-linecap="round"/>
<path d="M142.331 38.3331C142.116 39.1781 142 40.0732 142 40.9998C142 46.1545 145.582 51.6665 150 51.6665C154.418 51.6665 158 46.1545 158 40.9998C158 40.0732 157.884 39.1781 157.669 38.3331" stroke="#236BE2" stroke-width="2" stroke-linecap="round"/>
<path d="M152.667 33C151.494 34.1724 148.26 37.4064 141.152 38.1702" stroke="#236BE2" stroke-width="2" stroke-linecap="round"/>
<path d="M151.333 35.6669C152.667 37.0002 154 38.3335 158 38.3335" stroke="#236BE2" stroke-width="2" stroke-linecap="round"/>
<path d="M160.517 23.1676C160.6 23.0241 160.551 22.8405 160.406 22.7596C157.227 20.9835 153.645 20.0497 150 20.0497C146.355 20.0497 142.773 20.9835 139.594 22.7596C139.45 22.8405 139.401 23.0241 139.483 23.1676L143.659 30.3994C143.742 30.5429 143.925 30.5917 144.07 30.5123C145.888 29.5209 147.927 29.0002 150 29.0002C152.074 29.0002 154.112 29.5209 155.93 30.5123C156.075 30.5917 156.259 30.5429 156.342 30.3994L160.517 23.1676Z" stroke="#236BE2" stroke-width="2"/>
<path d="M140 59V63M138 61H142" stroke="#236BE2" stroke-width="2" stroke-linecap="round"/>
</svg>
