<svg width="18" height="18" viewBox="0 0 18 18" fill="none" xmlns="http://www.w3.org/2000/svg">
<path d="M11.8164 10.6912H11.2239L11.0139 10.4887C11.7489 9.63366 12.1914 8.52366 12.1914 7.31616C12.1914 4.62366 10.0089 2.44116 7.31641 2.44116C4.62391 2.44116 2.44141 4.62366 2.44141 7.31616C2.44141 10.0087 4.62391 12.1912 7.31641 12.1912C8.52391 12.1912 9.63391 11.7487 10.4889 11.0137L10.6914 11.2237V11.8162L14.4414 15.5587L15.5589 14.4412L11.8164 10.6912ZM7.31641 10.6912C5.44891 10.6912 3.94141 9.18366 3.94141 7.31616C3.94141 5.44866 5.44891 3.94116 7.31641 3.94116C9.18391 3.94116 10.6914 5.44866 10.6914 7.31616C10.6914 9.18366 9.18391 10.6912 7.31641 10.6912Z" fill="#938F99"/>
</svg>
