<svg width="24" height="24" viewBox="0 0 24 24" fill="none" xmlns="http://www.w3.org/2000/svg">
<path d="M17.0066 15.0065H15.9533L15.58 14.6465C16.8866 13.1265 17.6733 11.1532 17.6733 9.00651C17.6733 4.21984 13.7933 0.339844 9.00663 0.339844C4.21997 0.339844 0.339966 4.21984 0.339966 9.00651C0.339966 13.7932 4.21997 17.6732 9.00663 17.6732C11.1533 17.6732 13.1266 16.8865 14.6466 15.5798L15.0066 15.9532V17.0065L21.6733 23.6598L23.66 21.6732L17.0066 15.0065ZM9.00663 15.0065C5.68663 15.0065 3.00663 12.3265 3.00663 9.00651C3.00663 5.68651 5.68663 3.00651 9.00663 3.00651C12.3266 3.00651 15.0066 5.68651 15.0066 9.00651C15.0066 12.3265 12.3266 15.0065 9.00663 15.0065Z" fill="#201E1E"/>
</svg>
