<svg width="34" height="34" viewBox="0 0 34 34" fill="none" xmlns="http://www.w3.org/2000/svg">
<g clip-path="url(#clip0_2532_5359)">
<path d="M24.9808 12.4028C23.8661 12.4028 22.7972 11.96 22.009 11.1718C21.2208 10.3836 20.7781 9.31459 20.7781 8.19995H17.7754V19.9579C17.7749 20.4939 17.6056 21.0162 17.2916 21.4507C16.9776 21.8852 16.5349 22.2099 16.0261 22.3787C15.5173 22.5475 14.9682 22.5519 14.4568 22.3912C13.9454 22.2305 13.4975 21.913 13.1766 21.4836C12.8557 21.0541 12.6782 20.5346 12.669 19.9986C12.6599 19.4626 12.8197 18.9373 13.1258 18.4973C13.4319 18.0572 13.8688 17.7246 14.3744 17.5466C14.8801 17.3687 15.429 17.3544 15.9432 17.5058V14.5869C14.8503 14.4396 13.7385 14.6291 12.7562 15.1303C11.7739 15.6314 10.9679 16.4203 10.4458 17.3916C9.92363 18.3629 9.71024 19.4704 9.8341 20.5662C9.95796 21.662 10.4132 22.6939 11.1389 23.5241C11.8647 24.3544 12.8265 24.9435 13.8959 25.2127C14.9653 25.482 16.0913 25.4186 17.1237 25.031C18.1561 24.6434 19.0457 23.9501 19.6737 23.0436C20.3017 22.1371 20.6382 21.0606 20.6382 19.9579L20.7258 14.0146C21.9595 14.9203 23.4506 15.4076 24.9811 15.4053L24.9808 12.4028Z" fill="#232C6B"/>
</g>
<rect x="0.5" y="0.5" width="33" height="33" rx="16.5" stroke="#232C6B"/>
<defs>
<clipPath id="clip0_2532_5359">
<rect x="1" y="1" width="32" height="32" rx="16" fill="white"/>
</clipPath>
</defs>
</svg>
