<svg width="93" height="56" viewBox="0 0 93 56" fill="none" xmlns="http://www.w3.org/2000/svg">
<path d="M82.6631 46.415C83.4141 43.2096 82.0923 40.9719 79.9594 39.3692C78.0668 37.948 75.9037 36.7384 73.7107 35.8917C69.2345 34.168 64.5781 33.0189 59.441 32.5653C59.1706 33.6842 58.9003 34.803 58.63 35.9219C57.939 39.0668 57.5184 42.3024 56.497 45.2961C54.6645 50.588 50.789 53.9144 45.4417 55.4868C39.9741 57.0895 34.8972 54.8821 32.4338 49.6506C28.3782 41.0021 31.0819 33.4423 37.8112 28.9971C39.7939 27.6968 42.0771 26.8198 44.3302 26.0033C46.1928 25.3078 48.1755 25.0055 50.5188 24.4007C50.2484 23.2818 50.2182 22.0722 49.6474 21.1953C48.3557 19.1692 47.124 16.9315 45.3215 15.48C35.1976 7.31538 23.8118 4.20068 11.0442 7.8899C8.19027 8.70636 5.39651 9.82523 3.32365 12.2444C2.96315 12.6677 1.76141 12.6677 1.13054 12.4258C0.0790853 12.0025 -0.281412 10.7627 0.229292 9.91596C1.16058 8.43423 2.24213 6.89202 3.59399 5.83363C9.21174 1.47915 15.7908 -0.24452 22.7604 0.0276357C29.8501 0.299791 36.5495 2.26539 42.8281 5.65221C49.4372 9.22046 54.3339 14.2704 56.8574 21.4977C57.1879 22.4351 57.6085 23.3725 58.1493 24.7333C66.6209 26.6081 75.6034 27.7573 83.8648 33.0189C84.075 30.9626 84.1651 29.4506 84.3754 27.9689C84.5556 26.6384 85.3968 25.8219 86.6585 25.4591C87.8602 25.1264 89.4824 26.0336 89.9631 27.4246C90.4137 28.7552 90.8343 30.1159 90.9845 31.507C91.6754 37.4944 92.3063 43.512 92.9372 49.5297C92.9973 50.1345 93.0273 50.7392 92.9672 51.344C92.757 53.612 91.1648 55.1844 88.9417 54.8518C82.4227 53.8539 75.9338 52.6746 69.4449 51.5557C68.8741 51.465 68.123 51.3138 67.7926 50.9207C67.1918 50.1949 66.5608 49.318 66.5007 48.441C66.4406 47.8967 67.2819 46.929 67.9127 46.7476C69.4148 46.2638 71.007 45.9312 72.5692 45.9312C74.7622 45.9312 76.9552 46.294 79.1482 46.4452C80.2597 46.4755 81.4314 46.415 82.6631 46.415ZM51.9607 32.4141C47.094 32.0513 43.6392 32.9282 40.8153 35.045C37 37.9177 35.9787 42.5443 38.1416 46.8686C39.2532 49.1063 41.1458 50.0135 43.5792 49.4389C46.9438 48.6527 49.2569 46.5662 50.5487 43.391C51.9606 40.0042 52.3813 36.4662 51.9607 32.4141Z" fill="#236BE2"/>
</svg>
